<svg width="115" height="23" viewBox="0 0 115 23" fill="none" xmlns="http://www.w3.org/2000/svg">
<path d="M0.380005 21.9093V18.4293H3.14001V4.38926H0.380005V0.909258H11.18C12.46 0.909258 13.57 1.12926 14.51 1.56926C15.47 1.98926 16.21 2.59926 16.73 3.39926C17.27 4.17926 17.54 5.11926 17.54 6.21926V6.51926C17.54 7.47926 17.36 8.26926 17 8.88926C16.64 9.48926 16.21 9.95926 15.71 10.2993C15.23 10.6193 14.77 10.8493 14.33 10.9893V11.5293C14.77 11.6493 15.25 11.8793 15.77 12.2193C16.29 12.5393 16.73 13.0093 17.09 13.6293C17.47 14.2493 17.66 15.0593 17.66 16.0593V16.3593C17.66 17.5193 17.39 18.5193 16.85 19.3593C16.31 20.1793 15.56 20.8093 14.6 21.2493C13.66 21.6893 12.56 21.9093 11.3 21.9093H0.380005ZM7.10001 18.3093H10.82C11.68 18.3093 12.37 18.0993 12.89 17.6793C13.43 17.2593 13.7 16.6593 13.7 15.8793V15.5793C13.7 14.7993 13.44 14.1993 12.92 13.7793C12.4 13.3593 11.7 13.1493 10.82 13.1493H7.10001V18.3093ZM7.10001 9.54926H10.76C11.58 9.54926 12.25 9.33926 12.77 8.91926C13.31 8.49926 13.58 7.91926 13.58 7.17926V6.87926C13.58 6.11926 13.32 5.53926 12.8 5.13926C12.28 4.71926 11.6 4.50926 10.76 4.50926H7.10001V9.54926Z" fill="#101828"/>
<path d="M26.6019 22.3293C25.1219 22.3293 23.7919 22.0293 22.6119 21.4293C21.4319 20.8293 20.5019 19.9593 19.8219 18.8193C19.1419 17.6793 18.8019 16.3093 18.8019 14.7093V14.2293C18.8019 12.6293 19.1419 11.2593 19.8219 10.1193C20.5019 8.97926 21.4319 8.10926 22.6119 7.50926C23.7919 6.90926 25.1219 6.60926 26.6019 6.60926C28.0819 6.60926 29.4119 6.90926 30.5919 7.50926C31.7719 8.10926 32.7019 8.97926 33.3819 10.1193C34.0619 11.2593 34.4019 12.6293 34.4019 14.2293V14.7093C34.4019 16.3093 34.0619 17.6793 33.3819 18.8193C32.7019 19.9593 31.7719 20.8293 30.5919 21.4293C29.4119 22.0293 28.0819 22.3293 26.6019 22.3293ZM26.6019 18.9693C27.7619 18.9693 28.7219 18.5993 29.4819 17.8593C30.2419 17.0993 30.6219 16.0193 30.6219 14.6193V14.3193C30.6219 12.9193 30.2419 11.8493 29.4819 11.1093C28.7419 10.3493 27.7819 9.96926 26.6019 9.96926C25.4419 9.96926 24.4819 10.3493 23.7219 11.1093C22.9619 11.8493 22.5819 12.9193 22.5819 14.3193V14.6193C22.5819 16.0193 22.9619 17.0993 23.7219 17.8593C24.4819 18.5993 25.4419 18.9693 26.6019 18.9693Z" fill="#101828"/>
<path d="M36.391 21.9093V0.909258H40.171V21.9093H36.391Z" fill="#101828"/>
<path d="M48.5598 21.9093C47.5798 21.9093 46.7798 21.6093 46.1598 21.0093C45.5598 20.3893 45.2598 19.5693 45.2598 18.5493V10.1493H41.5398V7.02926H45.2598V2.40926H49.0398V7.02926H53.1198V10.1493H49.0398V17.8893C49.0398 18.4893 49.3198 18.7893 49.8798 18.7893H52.7598V21.9093H48.5598Z" fill="#101828"/>
<path d="M61.2214 22.3293C59.2814 22.3293 57.6914 21.9093 56.4514 21.0693C55.2114 20.2293 54.4614 19.0293 54.2014 17.4693L57.6814 16.5693C57.8214 17.2693 58.0514 17.8193 58.3714 18.2193C58.7114 18.6193 59.1214 18.9093 59.6014 19.0893C60.1014 19.2493 60.6414 19.3293 61.2214 19.3293C62.1014 19.3293 62.7514 19.1793 63.1714 18.8793C63.5914 18.5593 63.8014 18.1693 63.8014 17.7093C63.8014 17.2493 63.6014 16.8993 63.2014 16.6593C62.8014 16.3993 62.1614 16.1893 61.2814 16.0293L60.4414 15.8793C59.4014 15.6793 58.4514 15.4093 57.5914 15.0693C56.7314 14.7093 56.0414 14.2193 55.5214 13.5993C55.0014 12.9793 54.7414 12.1793 54.7414 11.1993C54.7414 9.71926 55.2814 8.58926 56.3614 7.80926C57.4414 7.00926 58.8614 6.60926 60.6214 6.60926C62.2814 6.60926 63.6614 6.97926 64.7614 7.71926C65.8614 8.45926 66.5814 9.42926 66.9214 10.6293L63.4114 11.7093C63.2514 10.9493 62.9214 10.4093 62.4214 10.0893C61.9414 9.76926 61.3414 9.60926 60.6214 9.60926C59.9014 9.60926 59.3514 9.73926 58.9714 9.99926C58.5914 10.2393 58.4014 10.5793 58.4014 11.0193C58.4014 11.4993 58.6014 11.8593 59.0014 12.0993C59.4014 12.3193 59.9414 12.4893 60.6214 12.6093L61.4614 12.7593C62.5814 12.9593 63.5914 13.2293 64.4914 13.5693C65.4114 13.8893 66.1314 14.3593 66.6514 14.9793C67.1914 15.5793 67.4614 16.3993 67.4614 17.4393C67.4614 18.9993 66.8914 20.2093 65.7514 21.0693C64.6314 21.9093 63.1214 22.3293 61.2214 22.3293Z" fill="#101828"/>
<path d="M69.2738 21.9093V0.909258H73.0538V8.85926H73.5938C73.7538 8.53926 74.0038 8.21926 74.3438 7.89926C74.6838 7.57926 75.1338 7.31926 75.6938 7.11926C76.2738 6.89926 77.0038 6.78926 77.8838 6.78926C79.0438 6.78926 80.0538 7.05926 80.9138 7.59926C81.7938 8.11926 82.4738 8.84926 82.9538 9.78926C83.4338 10.7093 83.6738 11.7893 83.6738 13.0293V21.9093H79.8938V13.3293C79.8938 12.2093 79.6138 11.3693 79.0538 10.8093C78.5138 10.2493 77.7338 9.96926 76.7138 9.96926C75.5538 9.96926 74.6538 10.3593 74.0138 11.1393C73.3738 11.8993 73.0538 12.9693 73.0538 14.3493V21.9093H69.2738Z" fill="#101828"/>
<path d="M86.2602 21.9093V7.02926H90.0402V21.9093H86.2602ZM88.1502 5.28926C87.4702 5.28926 86.8902 5.06926 86.4102 4.62926C85.9502 4.18926 85.7202 3.60926 85.7202 2.88926C85.7202 2.16926 85.9502 1.58926 86.4102 1.14926C86.8902 0.709258 87.4702 0.489258 88.1502 0.489258C88.8502 0.489258 89.4302 0.709258 89.8902 1.14926C90.3502 1.58926 90.5802 2.16926 90.5802 2.88926C90.5802 3.60926 90.3502 4.18926 89.8902 4.62926C89.4302 5.06926 88.8502 5.28926 88.1502 5.28926Z" fill="#101828"/>
<path d="M95.1889 21.9093V10.1493H91.4089V7.02926H95.1889V4.26926C95.1889 3.24926 95.4889 2.43926 96.0889 1.83926C96.7089 1.21926 97.5089 0.909258 98.4889 0.909258H102.389V4.02926H99.8089C99.2489 4.02926 98.9689 4.32926 98.9689 4.92926V7.02926H102.869V10.1493H98.9689V21.9093H95.1889Z" fill="#101828"/>
<path d="M109.702 21.9093C108.722 21.9093 107.922 21.6093 107.302 21.0093C106.702 20.3893 106.402 19.5693 106.402 18.5493V10.1493H102.682V7.02926H106.402V2.40926H110.182V7.02926H114.262V10.1493H110.182V17.8893C110.182 18.4893 110.462 18.7893 111.022 18.7893H113.902V21.9093H109.702Z" fill="#101828"/>
</svg>
