<svg width="45" height="44" viewBox="0 0 45 44" fill="none" xmlns="http://www.w3.org/2000/svg">
<path d="M36.7065 9.16308C36.2743 8.73086 35.8421 8.29864 35.4099 7.86642C34.1132 6.48331 32.7301 5.10021 31.0012 4.23577C29.013 3.19844 26.8519 3.45777 24.6908 3.45777C21.406 3.45777 13.1938 3.45777 8.35291 3.45777L11.6378 7.86642C17.6024 7.86642 26.9384 7.86642 31.2606 7.86642C33.0759 7.86642 34.6319 8.21219 36.1014 9.16308C36.3608 9.24952 36.6201 9.24952 36.7065 9.16308Z" fill="#66C61C"/>
<path d="M40.3372 16.2517C39.9049 15.8195 39.4727 15.3873 39.0405 14.955C37.7438 13.5719 36.3608 12.1888 34.6319 11.3244C32.6437 10.2871 30.4826 10.5464 28.3215 10.5464C25.4688 10.5464 18.6397 10.5464 13.7989 10.5464L17.0837 14.955C22.9619 14.955 31.0012 14.955 34.9776 14.955C36.793 14.955 38.349 15.3008 39.8185 16.2517C39.9914 16.3381 40.1643 16.3381 40.3372 16.2517Z" fill="#4CA30D"/>
<path d="M44.4 23.167C43.9678 22.7348 43.5356 22.3025 43.1034 21.8703C41.8067 20.4872 40.4236 19.1041 38.6947 18.2397C36.7065 17.2023 34.5454 17.4617 32.3843 17.4617C29.7045 17.4617 23.8264 17.4617 19.0719 17.4617L22.3568 21.8703C28.0621 21.8703 35.3234 21.8703 38.9541 21.8703C40.7694 21.8703 42.3254 22.2161 43.7949 23.167C44.0542 23.2534 44.2271 23.3399 44.4 23.167Z" fill="#3B7C0F"/>
<path d="M8.00714 34.8368C8.43936 35.269 8.87158 35.7012 9.3038 36.1335C10.6005 37.5166 11.9836 38.8997 13.7124 39.7641C15.7007 40.8014 17.8618 40.5421 20.0229 40.5421H36.3608L33.0759 36.1335C27.1113 36.1335 17.7753 36.1335 13.4531 36.1335C11.6378 36.1335 10.0818 35.7877 8.61225 34.8368C8.35291 34.7504 8.18003 34.7504 8.00714 34.8368Z" fill="#66C61C"/>
<path d="M4.37646 27.7487C4.80868 28.1809 5.24091 28.6131 5.67313 29.0453C6.96979 30.4284 8.35288 31.8116 10.0818 32.676C12.07 33.7133 14.2311 33.454 16.3922 33.454H30.9148L27.6299 29.0453C21.7517 29.0453 13.7124 29.0453 9.73599 29.0453C7.92067 29.0453 6.36467 28.6996 4.89512 27.7487C4.72223 27.6622 4.54935 27.6622 4.37646 27.7487Z" fill="#4CA30D"/>
<path d="M0.399994 20.7465C0.832214 21.1787 1.26443 21.6109 1.69665 22.0431C2.99331 23.4262 4.37642 24.8094 6.1053 25.6738C8.09352 26.7111 10.2546 26.4518 12.4157 26.4518H25.7281L22.4432 22.0431C16.7379 22.0431 9.47662 22.0431 5.84597 22.0431C4.03065 22.0431 2.47465 21.6974 1.0051 20.7465C0.745767 20.66 0.572882 20.66 0.399994 20.7465Z" fill="#3B7C0F"/>
</svg>
