<svg width="145" height="21" viewBox="0 0 145 21" fill="none" xmlns="http://www.w3.org/2000/svg">
<path d="M0.332001 0.00805664V20.0001H4.728V11.7401H13.1V8.32406H4.728V3.70406H14.388V0.00805664H0.332001Z" fill="#101828"/>
<path d="M25.4137 11.2081H18.9457C18.9643 10.9281 19.0203 10.6107 19.1137 10.2561C19.2257 9.90139 19.403 9.56539 19.6457 9.24806C19.907 8.93073 20.243 8.66939 20.6537 8.46406C21.083 8.24006 21.615 8.12806 22.2497 8.12806C23.2203 8.12806 23.939 8.38939 24.4057 8.91206C24.891 9.43472 25.227 10.2001 25.4137 11.2081ZM18.9457 13.7281H29.3897C29.4643 12.6081 29.371 11.5347 29.1097 10.5081C28.8483 9.48139 28.419 8.56672 27.8217 7.76406C27.243 6.96139 26.4963 6.32673 25.5817 5.86006C24.667 5.37472 23.5937 5.13206 22.3617 5.13206C21.2603 5.13206 20.2523 5.32806 19.3377 5.72006C18.4417 6.11206 17.667 6.65339 17.0137 7.34406C16.3603 8.01606 15.8563 8.81872 15.5017 9.75206C15.147 10.6854 14.9697 11.6934 14.9697 12.7761C14.9697 13.8961 15.1377 14.9227 15.4737 15.8561C15.8283 16.7894 16.323 17.5921 16.9577 18.2641C17.5923 18.9361 18.367 19.4587 19.2817 19.8321C20.1963 20.1867 21.223 20.3641 22.3617 20.3641C24.0043 20.3641 25.4043 19.9907 26.5617 19.2441C27.719 18.4974 28.5777 17.2561 29.1377 15.5201H25.6377C25.507 15.9681 25.1523 16.3974 24.5737 16.8081C23.995 17.2001 23.3043 17.3961 22.5017 17.3961C21.3817 17.3961 20.523 17.1067 19.9257 16.5281C19.3283 15.9494 19.0017 15.0161 18.9457 13.7281Z" fill="#101828"/>
<path d="M30.7398 9.97606C30.7958 9.04272 31.0291 8.26806 31.4398 7.65206C31.8504 7.03606 32.3731 6.54139 33.0078 6.16806C33.6424 5.79472 34.3518 5.53339 35.1358 5.38406C35.9384 5.21606 36.7411 5.13206 37.5438 5.13206C38.2718 5.13206 39.0091 5.18806 39.7558 5.30006C40.5024 5.39339 41.1838 5.58939 41.7998 5.88806C42.4158 6.18672 42.9198 6.60672 43.3118 7.14806C43.7038 7.67072 43.8998 8.37072 43.8998 9.24806V16.7801C43.8998 17.4334 43.9371 18.0587 44.0118 18.6561C44.0864 19.2534 44.2171 19.7014 44.4038 20.0001H40.3718C40.2971 19.7761 40.2318 19.5521 40.1758 19.3281C40.1384 19.0854 40.1104 18.8427 40.0918 18.6001C39.4571 19.2534 38.7104 19.7107 37.8518 19.9721C36.9931 20.2334 36.1158 20.3641 35.2198 20.3641C34.5291 20.3641 33.8851 20.2801 33.2878 20.1121C32.6905 19.9441 32.1678 19.6827 31.7198 19.3281C31.2718 18.9734 30.9171 18.5254 30.6558 17.9841C30.4131 17.4427 30.2918 16.7987 30.2918 16.0521C30.2918 15.2307 30.4318 14.5587 30.7118 14.0361C31.0105 13.4947 31.3838 13.0654 31.8318 12.7481C32.2985 12.4307 32.8211 12.1974 33.3998 12.0481C33.9971 11.8801 34.5945 11.7494 35.1918 11.6561C35.7891 11.5627 36.3771 11.4881 36.9558 11.4321C37.5345 11.3761 38.0478 11.2921 38.4958 11.1801C38.9438 11.0681 39.2985 10.9094 39.5598 10.7041C39.8211 10.4801 39.9424 10.1627 39.9238 9.75206C39.9238 9.32272 39.8491 8.98672 39.6998 8.74406C39.5691 8.48272 39.3825 8.28673 39.1398 8.15606C38.9158 8.00672 38.6451 7.91339 38.3278 7.87606C38.0291 7.82006 37.7024 7.79206 37.3478 7.79206C36.5638 7.79206 35.9478 7.96006 35.4998 8.29606C35.0518 8.63206 34.7904 9.19206 34.7158 9.97606H30.7398ZM39.9238 12.9161C39.7558 13.0654 39.5411 13.1867 39.2798 13.2801C39.0371 13.3547 38.7664 13.4201 38.4678 13.4761C38.1878 13.5321 37.8891 13.5787 37.5718 13.6161C37.2545 13.6534 36.9371 13.7001 36.6198 13.7561C36.3211 13.8121 36.0224 13.8867 35.7238 13.9801C35.4438 14.0734 35.1918 14.2041 34.9678 14.3721C34.7624 14.5214 34.5944 14.7174 34.4638 14.9601C34.3331 15.2027 34.2678 15.5107 34.2678 15.8841C34.2678 16.2387 34.3331 16.5374 34.4638 16.7801C34.5944 17.0227 34.7718 17.2187 34.9958 17.3681C35.2198 17.4987 35.4811 17.5921 35.7798 17.6481C36.0784 17.7041 36.3864 17.7321 36.7038 17.7321C37.4878 17.7321 38.0944 17.6014 38.5238 17.3401C38.9531 17.0787 39.2705 16.7707 39.4758 16.4161C39.6811 16.0427 39.8024 15.6694 39.8398 15.2961C39.8958 14.9227 39.9238 14.6241 39.9238 14.4001V12.9161Z" fill="#101828"/>
<path d="M51.1859 5.52406V1.18406H47.2099V5.52406H44.8019V8.18406H47.2099V16.7241C47.2099 17.4521 47.3312 18.0401 47.5739 18.4881C47.8166 18.9361 48.1432 19.2814 48.5539 19.5241C48.9832 19.7667 49.4686 19.9254 50.0099 20.0001C50.5699 20.0934 51.1579 20.1401 51.7739 20.1401C52.1659 20.1401 52.5672 20.1307 52.9779 20.1121C53.3886 20.0934 53.7619 20.0561 54.0979 20.0001V16.9201C53.9112 16.9574 53.7152 16.9854 53.5099 17.0041C53.3046 17.0227 53.0899 17.0321 52.8659 17.0321C52.1939 17.0321 51.7459 16.9201 51.5219 16.6961C51.2979 16.4721 51.1859 16.0241 51.1859 15.3521V8.18406H54.0979V5.52406H51.1859Z" fill="#101828"/>
<path d="M55.1497 0.00805664V20.0001H59.1257V12.4121C59.1257 10.9374 59.3683 9.88272 59.8537 9.24806C60.339 8.59472 61.123 8.26806 62.2057 8.26806C63.1577 8.26806 63.8203 8.56672 64.1937 9.16406C64.567 9.74272 64.7537 10.6294 64.7537 11.8241V20.0001H68.7297V11.0961C68.7297 10.2001 68.6457 9.38806 68.4777 8.66006C68.3283 7.91339 68.0577 7.28806 67.6657 6.78406C67.2737 6.26139 66.7323 5.86006 66.0417 5.58006C65.3697 5.28139 64.5017 5.13206 63.4377 5.13206C62.691 5.13206 61.9257 5.32806 61.1417 5.72006C60.3577 6.09339 59.7137 6.70006 59.2097 7.54006H59.1257V0.00805664H55.1497Z" fill="#101828"/>
<path d="M80.6513 11.2081H74.1833C74.202 10.9281 74.258 10.6107 74.3513 10.2561C74.4633 9.90139 74.6406 9.56539 74.8833 9.24806C75.1446 8.93073 75.4807 8.66939 75.8913 8.46406C76.3207 8.24006 76.8527 8.12806 77.4873 8.12806C78.458 8.12806 79.1767 8.38939 79.6433 8.91206C80.1287 9.43472 80.4646 10.2001 80.6513 11.2081ZM74.1833 13.7281H84.6273C84.702 12.6081 84.6087 11.5347 84.3473 10.5081C84.086 9.48139 83.6567 8.56672 83.0593 7.76406C82.4807 6.96139 81.734 6.32673 80.8193 5.86006C79.9047 5.37472 78.8313 5.13206 77.5993 5.13206C76.498 5.13206 75.49 5.32806 74.5753 5.72006C73.6793 6.11206 72.9047 6.65339 72.2513 7.34406C71.598 8.01606 71.094 8.81872 70.7393 9.75206C70.3847 10.6854 70.2073 11.6934 70.2073 12.7761C70.2073 13.8961 70.3753 14.9227 70.7113 15.8561C71.066 16.7894 71.5607 17.5921 72.1953 18.2641C72.83 18.9361 73.6047 19.4587 74.5193 19.8321C75.434 20.1867 76.4607 20.3641 77.5993 20.3641C79.242 20.3641 80.642 19.9907 81.7993 19.2441C82.9566 18.4974 83.8153 17.2561 84.3753 15.5201H80.8753C80.7447 15.9681 80.39 16.3974 79.8113 16.8081C79.2327 17.2001 78.542 17.3961 77.7393 17.3961C76.6193 17.3961 75.7607 17.1067 75.1633 16.5281C74.566 15.9494 74.2393 15.0161 74.1833 13.7281Z" fill="#101828"/>
<path d="M86.1454 5.52406V20.0001H90.1214V13.4761C90.1214 12.8227 90.1868 12.2161 90.3174 11.6561C90.4481 11.0961 90.6628 10.6107 90.9614 10.2001C91.2788 9.77072 91.6894 9.43472 92.1934 9.19206C92.6974 8.94939 93.3134 8.82806 94.0414 8.82806C94.2841 8.82806 94.5361 8.84672 94.7974 8.88406C95.0588 8.90272 95.2828 8.93072 95.4694 8.96806V5.27206C95.1521 5.17872 94.8628 5.13206 94.6014 5.13206C94.0974 5.13206 93.6121 5.20672 93.1454 5.35606C92.6788 5.50539 92.2401 5.72006 91.8294 6.00006C91.4188 6.26139 91.0548 6.58806 90.7374 6.98006C90.4201 7.35339 90.1681 7.76406 89.9814 8.21206H89.9254V5.52406H86.1454Z" fill="#101828"/>
<path d="M101.004 16.3041V3.70406H104.14C105.223 3.70406 106.128 3.86272 106.856 4.18006C107.603 4.47872 108.2 4.91739 108.648 5.49606C109.096 6.07473 109.414 6.77472 109.6 7.59606C109.806 8.39872 109.908 9.30406 109.908 10.3121C109.908 11.4134 109.768 12.3467 109.488 13.1121C109.208 13.8774 108.835 14.5027 108.368 14.9881C107.902 15.4547 107.37 15.7907 106.772 15.9961C106.175 16.2014 105.559 16.3041 104.924 16.3041H101.004ZM96.6083 0.00805664V20.0001H105.232C106.763 20.0001 108.088 19.7481 109.208 19.2441C110.347 18.7214 111.29 18.0121 112.036 17.1161C112.802 16.2201 113.371 15.1561 113.744 13.9241C114.118 12.6921 114.304 11.3481 114.304 9.89206C114.304 8.23072 114.071 6.78406 113.604 5.55206C113.156 4.32006 112.522 3.29339 111.7 2.47206C110.898 1.65072 109.936 1.03472 108.816 0.624057C107.715 0.21339 106.52 0.00805664 105.232 0.00805664H96.6083Z" fill="#101828"/>
<path d="M125.846 11.2081H119.378C119.397 10.9281 119.453 10.6107 119.546 10.2561C119.658 9.90139 119.835 9.56539 120.078 9.24806C120.339 8.93073 120.675 8.66939 121.086 8.46406C121.515 8.24006 122.047 8.12806 122.682 8.12806C123.653 8.12806 124.371 8.38939 124.838 8.91206C125.323 9.43472 125.659 10.2001 125.846 11.2081ZM119.378 13.7281H129.822C129.897 12.6081 129.803 11.5347 129.542 10.5081C129.281 9.48139 128.851 8.56672 128.254 7.76406C127.675 6.96139 126.929 6.32673 126.014 5.86006C125.099 5.37472 124.026 5.13206 122.794 5.13206C121.693 5.13206 120.685 5.32806 119.77 5.72006C118.874 6.11206 118.099 6.65339 117.446 7.34406C116.793 8.01606 116.289 8.81872 115.934 9.75206C115.579 10.6854 115.402 11.6934 115.402 12.7761C115.402 13.8961 115.57 14.9227 115.906 15.8561C116.261 16.7894 116.755 17.5921 117.39 18.2641C118.025 18.9361 118.799 19.4587 119.714 19.8321C120.629 20.1867 121.655 20.3641 122.794 20.3641C124.437 20.3641 125.837 19.9907 126.994 19.2441C128.151 18.4974 129.01 17.2561 129.57 15.5201H126.07C125.939 15.9681 125.585 16.3974 125.006 16.8081C124.427 17.2001 123.737 17.3961 122.934 17.3961C121.814 17.3961 120.955 17.1067 120.358 16.5281C119.761 15.9494 119.434 15.0161 119.378 13.7281Z" fill="#101828"/>
<path d="M139.348 20.0001L144.248 5.52406H140.3L137.248 15.4081H137.192L134.14 5.52406H129.968L134.924 20.0001H139.348Z" fill="#101828"/>
</svg>
