<svg width="117" height="30" viewBox="0 0 117 30" fill="none" xmlns="http://www.w3.org/2000/svg">
<path d="M5.49109 18.3452H11.5391V21.9092H0.874084V2.95523H5.49109V18.3452Z" fill="#101828"/>
<path d="M15.7933 5.27723C14.9833 5.27723 14.3173 5.04323 13.7953 4.57523C13.2913 4.08923 13.0393 3.49523 13.0393 2.79323C13.0393 2.07323 13.2913 1.47923 13.7953 1.01123C14.3173 0.525227 14.9833 0.282227 15.7933 0.282227C16.5853 0.282227 17.2333 0.525227 17.7373 1.01123C18.2593 1.47923 18.5203 2.07323 18.5203 2.79323C18.5203 3.49523 18.2593 4.08923 17.7373 4.57523C17.2333 5.04323 16.5853 5.27723 15.7933 5.27723ZM18.0883 6.84323V21.9092H13.4713V6.84323H18.0883Z" fill="#101828"/>
<path d="M26.8882 6.62723C27.9502 6.62723 28.8772 6.84323 29.6692 7.27523C30.4792 7.70723 31.1002 8.27423 31.5322 8.97623V6.84323H36.1492V21.8822C36.1492 23.2682 35.8702 24.5192 35.3122 25.6352C34.7722 26.7692 33.9352 27.6692 32.8012 28.3352C31.6852 29.0012 30.2902 29.3342 28.6162 29.3342C26.3842 29.3342 24.5752 28.8032 23.1892 27.7412C21.8032 26.6972 21.0112 25.2752 20.8132 23.4752H25.3762C25.5202 24.0512 25.8622 24.5012 26.4022 24.8252C26.9422 25.1672 27.6082 25.3382 28.4002 25.3382C29.3542 25.3382 30.1102 25.0592 30.6682 24.5012C31.2442 23.9612 31.5322 23.0882 31.5322 21.8822V19.7492C31.0822 20.4512 30.4612 21.0272 29.6692 21.4772C28.8772 21.9092 27.9502 22.1252 26.8882 22.1252C25.6462 22.1252 24.5212 21.8102 23.5132 21.1802C22.5052 20.5322 21.7042 19.6232 21.1102 18.4532C20.5342 17.2652 20.2462 15.8972 20.2462 14.3492C20.2462 12.8012 20.5342 11.4422 21.1102 10.2722C21.7042 9.10223 22.5052 8.20223 23.5132 7.57223C24.5212 6.94223 25.6462 6.62723 26.8882 6.62723ZM31.5322 14.3762C31.5322 13.2242 31.2082 12.3152 30.5602 11.6492C29.9302 10.9832 29.1562 10.6502 28.2382 10.6502C27.3202 10.6502 26.5372 10.9832 25.8892 11.6492C25.2592 12.2972 24.9442 13.1972 24.9442 14.3492C24.9442 15.5012 25.2592 16.4192 25.8892 17.1032C26.5372 17.7692 27.3202 18.1022 28.2382 18.1022C29.1562 18.1022 29.9302 17.7692 30.5602 17.1032C31.2082 16.4372 31.5322 15.5282 31.5322 14.3762Z" fill="#101828"/>
<path d="M48.4804 6.68123C50.2084 6.68123 51.5944 7.25723 52.6384 8.40923C53.6824 9.54323 54.2044 11.1092 54.2044 13.1072V21.9092H49.6144V13.7282C49.6144 12.7202 49.3534 11.9372 48.8314 11.3792C48.3094 10.8212 47.6074 10.5422 46.7254 10.5422C45.8434 10.5422 45.1414 10.8212 44.6194 11.3792C44.0974 11.9372 43.8364 12.7202 43.8364 13.7282V21.9092H39.2194V1.92923H43.8364V8.86823C44.3044 8.20223 44.9434 7.67123 45.7534 7.27523C46.5634 6.87923 47.4724 6.68123 48.4804 6.68123Z" fill="#101828"/>
<path d="M65.5397 17.9942V21.9092H63.1907C61.5167 21.9092 60.2117 21.5042 59.2757 20.6942C58.3397 19.8662 57.8717 18.5252 57.8717 16.6712V10.6772H56.0357V6.84323H57.8717V3.17123H62.4887V6.84323H65.5127V10.6772H62.4887V16.7252C62.4887 17.1752 62.5967 17.4992 62.8127 17.6972C63.0287 17.8952 63.3887 17.9942 63.8927 17.9942H65.5397Z" fill="#101828"/>
<path d="M72.4585 8.97623C72.8905 8.27423 73.5115 7.70723 74.3215 7.27523C75.1315 6.84323 76.0585 6.62723 77.1025 6.62723C78.3445 6.62723 79.4695 6.94223 80.4775 7.57223C81.4855 8.20223 82.2775 9.10223 82.8535 10.2722C83.4475 11.4422 83.7445 12.8012 83.7445 14.3492C83.7445 15.8972 83.4475 17.2652 82.8535 18.4532C82.2775 19.6232 81.4855 20.5322 80.4775 21.1802C79.4695 21.8102 78.3445 22.1252 77.1025 22.1252C76.0405 22.1252 75.1135 21.9182 74.3215 21.5042C73.5295 21.0722 72.9085 20.5052 72.4585 19.8032V21.9092H67.8415V1.92923H72.4585V8.97623ZM79.0465 14.3492C79.0465 13.1972 78.7225 12.2972 78.0745 11.6492C77.4445 10.9832 76.6615 10.6502 75.7255 10.6502C74.8075 10.6502 74.0245 10.9832 73.3765 11.6492C72.7465 12.3152 72.4315 13.2242 72.4315 14.3762C72.4315 15.5282 72.7465 16.4372 73.3765 17.1032C74.0245 17.7692 74.8075 18.1022 75.7255 18.1022C76.6435 18.1022 77.4265 17.7692 78.0745 17.1032C78.7225 16.4192 79.0465 15.5012 79.0465 14.3492Z" fill="#101828"/>
<path d="M92.7547 22.1252C91.2787 22.1252 89.9467 21.8102 88.7587 21.1802C87.5887 20.5502 86.6617 19.6502 85.9777 18.4802C85.3117 17.3102 84.9787 15.9422 84.9787 14.3762C84.9787 12.8282 85.3207 11.4692 86.0047 10.2992C86.6887 9.11123 87.6246 8.20223 88.8127 7.57223C90.0007 6.94223 91.3327 6.62723 92.8087 6.62723C94.2847 6.62723 95.6167 6.94223 96.8047 7.57223C97.9927 8.20223 98.9287 9.11123 99.6127 10.2992C100.297 11.4692 100.639 12.8282 100.639 14.3762C100.639 15.9242 100.288 17.2922 99.5857 18.4802C98.9017 19.6502 97.9567 20.5502 96.7507 21.1802C95.5627 21.8102 94.2307 22.1252 92.7547 22.1252ZM92.7547 18.1292C93.6367 18.1292 94.3837 17.8052 94.9957 17.1572C95.6257 16.5092 95.9407 15.5822 95.9407 14.3762C95.9407 13.1702 95.6347 12.2432 95.0227 11.5952C94.4287 10.9472 93.6907 10.6232 92.8087 10.6232C91.9087 10.6232 91.1617 10.9472 90.5677 11.5952C89.9737 12.2252 89.6767 13.1522 89.6767 14.3762C89.6767 15.5822 89.9647 16.5092 90.5407 17.1572C91.1347 17.8052 91.8727 18.1292 92.7547 18.1292Z" fill="#101828"/>
<path d="M111.728 21.9092L108.839 17.7242L106.409 21.9092H101.414L106.382 14.2142L101.279 6.84323H106.463L109.352 11.0012L111.782 6.84323H116.777L111.728 14.4302L116.912 21.9092H111.728Z" fill="#101828"/>
</svg>
