<svg width="39" height="42" viewBox="0 0 39 42" fill="none" xmlns="http://www.w3.org/2000/svg">
<path fill-rule="evenodd" clip-rule="evenodd" d="M19.9655 0.44802C19.4605 0.34415 18.9396 0.34415 18.4345 0.44802C17.8507 0.568089 17.3289 0.86035 16.9141 1.0927L16.801 1.15587L2.74154 8.96669C2.70267 8.98829 2.66262 9.01035 2.62158 9.03295C2.18245 9.27483 1.6303 9.57895 1.20628 10.0391C0.839687 10.4369 0.562258 10.9084 0.392548 11.422C0.196252 12.0161 0.198549 12.6465 0.200375 13.1478C0.200546 13.1947 0.200713 13.2404 0.200713 13.2849V28.7068C0.200713 28.7513 0.200546 28.797 0.200375 28.8438C0.198549 29.3452 0.196252 29.9755 0.392548 30.5697C0.562259 31.0833 0.839689 31.5548 1.20628 31.9526C1.6303 32.4127 2.18245 32.7168 2.62158 32.9587C2.66262 32.9813 2.70268 33.0034 2.74154 33.025L16.801 40.8358L16.9141 40.899C17.3289 41.1313 17.8507 41.4236 18.4345 41.5436C18.9396 41.6475 19.4605 41.6475 19.9655 41.5436C20.5493 41.4236 21.0711 41.1313 21.4859 40.899L21.599 40.8358L35.6585 33.025C35.6757 33.0154 35.6931 33.0058 35.7107 32.9961C35.733 32.9838 35.7555 32.9713 35.7784 32.9587C36.2176 32.7169 36.7697 32.4127 37.1937 31.9526C37.5603 31.5548 37.8378 31.0833 38.0075 30.5697C38.2038 29.9755 38.2015 29.3452 38.1996 28.8438C38.1995 28.797 38.1993 28.7513 38.1993 28.7068V13.2849C38.1993 13.2404 38.1995 13.1947 38.1996 13.1478C38.2015 12.6465 38.2038 12.0161 38.0075 11.422C37.8378 10.9084 37.5603 10.4369 37.1937 10.0391C36.7697 9.57894 36.2176 9.27481 35.7784 9.03294L35.7769 9.03209C35.7364 9.00978 35.6969 8.98801 35.6585 8.96669L21.599 1.15586L21.4859 1.09269C21.0711 0.860345 20.5493 0.568088 19.9655 0.44802ZM18.6464 4.47754C18.9343 4.31759 19.0813 4.23676 19.1909 4.18388L19.2 4.17953L19.2091 4.18388C19.3187 4.23676 19.4657 4.31758 19.7536 4.47754L32.3871 11.4961L19.2 18.8223L6.01286 11.4962L18.6464 4.47754ZM4.00057 14.7251L17.3 22.1137L17.3001 36.7662L4.58692 29.7033C4.28302 29.5345 4.12786 29.4474 4.019 29.378L4.00981 29.3721L4.00912 29.3612C4.00136 29.2324 4.00057 29.0545 4.00057 28.7068V14.7251Z" fill="#101828"/>
</svg>
